<svg width="12" height="12" viewBox="0 0 12 12" fill="none" xmlns="http://www.w3.org/2000/svg">
<path d="M10.6285 5.481C10.8655 5.791 10.8655 6.2095 10.6285 6.519C9.88201 7.4935 8.09101 9.5 6.00001 9.5C3.90901 9.5 2.11801 7.4935 1.37151 6.519C1.2562 6.37057 1.1936 6.18796 1.1936 6C1.1936 5.81204 1.2562 5.62943 1.37151 5.481C2.11801 4.5065 3.90901 2.5 6.00001 2.5C8.09101 2.5 9.88201 4.5065 10.6285 5.481V5.481Z" stroke="#5D5D6A" stroke-linecap="round" stroke-linejoin="round"/>
<path d="M6 7.5C6.82843 7.5 7.5 6.82843 7.5 6C7.5 5.17157 6.82843 4.5 6 4.5C5.17157 4.5 4.5 5.17157 4.5 6C4.5 6.82843 5.17157 7.5 6 7.5Z" stroke="#5D5D6A" stroke-linecap="round" stroke-linejoin="round"/>
</svg>
