<svg width="24" height="24" viewBox="0 0 24 24" fill="none" xmlns="http://www.w3.org/2000/svg">
<path d="M9.60161 11.9984C9.6013 11.8383 9.65707 11.6831 9.75925 11.5598L13.186 7.4476C13.3024 7.30764 13.4695 7.21962 13.6508 7.20291C13.832 7.1862 14.0124 7.24217 14.1524 7.3585C14.2924 7.47484 14.3804 7.642 14.3971 7.82323C14.4138 8.00446 14.3578 8.1849 14.2415 8.32486L11.1711 11.9984L14.1318 15.6719C14.1888 15.742 14.2313 15.8227 14.2569 15.9093C14.2826 15.9959 14.2909 16.0867 14.2813 16.1765C14.2718 16.2663 14.2446 16.3533 14.2013 16.4326C14.158 16.5118 14.0994 16.5817 14.029 16.6383C13.9586 16.701 13.8759 16.7486 13.7862 16.7779C13.6965 16.8072 13.6017 16.8177 13.5078 16.8087C13.4138 16.7997 13.3228 16.7714 13.2403 16.7256C13.1578 16.6797 13.0857 16.6173 13.0284 16.5423L9.71813 12.4302C9.6321 12.3033 9.59108 12.1513 9.60161 11.9984Z" fill="white"/>
<rect x="23.5" y="0.5" width="23" height="23" rx="3.5" transform="rotate(90 23.5 0.5)" stroke="white"/>
</svg>
