<svg width="32" height="32" viewBox="0 0 32 32" fill="none" xmlns="http://www.w3.org/2000/svg">
<g filter="url(#filter0_d_1_155)">
<path d="M21.25 17.25L18.6332 14.6285M20.0833 11.125C20.0833 12.44 19.5609 13.7012 18.6311 14.6311C17.7012 15.5609 16.44 16.0833 15.125 16.0833C13.81 16.0833 12.5488 15.5609 11.6189 14.6311C10.6891 13.7012 10.1667 12.44 10.1667 11.125C10.1667 9.80996 10.6891 8.54879 11.6189 7.61892C12.5488 6.68905 13.81 6.16666 15.125 6.16666C16.44 6.16666 17.7012 6.68905 18.6311 7.61892C19.5609 8.54879 20.0833 9.80996 20.0833 11.125V11.125Z" stroke="white" stroke-linecap="round"/>
<rect x="27.5" y="0.5" width="23" height="23" rx="3.5" transform="rotate(90 27.5 0.5)" stroke="white" shape-rendering="crispEdges"/>
</g>
<defs>
<filter id="filter0_d_1_155" x="0" y="0" width="32" height="32" filterUnits="userSpaceOnUse" color-interpolation-filters="sRGB">
<feFlood flood-opacity="0" result="BackgroundImageFix"/>
<feColorMatrix in="SourceAlpha" type="matrix" values="0 0 0 0 0 0 0 0 0 0 0 0 0 0 0 0 0 0 127 0" result="hardAlpha"/>
<feOffset dy="4"/>
<feGaussianBlur stdDeviation="2"/>
<feComposite in2="hardAlpha" operator="out"/>
<feColorMatrix type="matrix" values="0 0 0 0 0 0 0 0 0 0 0 0 0 0 0 0 0 0 0.25 0"/>
<feBlend mode="normal" in2="BackgroundImageFix" result="effect1_dropShadow_1_155"/>
<feBlend mode="normal" in="SourceGraphic" in2="effect1_dropShadow_1_155" result="shape"/>
</filter>
</defs>
</svg>
