<svg width="24" height="24" viewBox="0 0 24 24" fill="none" xmlns="http://www.w3.org/2000/svg">
<path d="M10.3185 13.1729V13.235L10.3185 18.5052L10.3185 18.5054M10.3185 13.1729L11.1737 19.1272C11.0678 19.1799 10.9501 19.2047 10.8319 19.1993C10.7136 19.1938 10.5987 19.1583 10.4981 19.096C10.3974 19.0337 10.3143 18.9468 10.2566 18.8435C10.1989 18.7401 10.1686 18.6237 10.1685 18.5054H10.3185M10.3185 13.1729L10.2745 13.129L6.5111 9.36556C6.28216 9.13662 6.15 8.81766 6.15 8.49412V6.69474C6.15 6.55027 6.20739 6.41171 6.30955 6.30955C6.41171 6.20739 6.55027 6.15 6.69474 6.15H17.8106C17.9551 6.15 18.0937 6.20739 18.1958 6.30955C18.298 6.41171 18.3554 6.55027 18.3554 6.69474V8.49412C18.3554 8.81766 18.2232 9.13662 17.9943 9.36556L14.2308 13.129L14.1869 13.1729V13.235V17.1159C14.1869 17.3223 14.0704 17.5109 13.8855 17.6036L11.1069 18.9929C11.1069 18.9929 11.1068 18.9929 11.1067 18.993M10.3185 13.1729L11.1067 18.993M10.3185 18.5054C10.3186 18.5981 10.3424 18.6893 10.3876 18.7704C10.4328 18.8514 10.498 18.9196 10.577 18.9684C10.6559 19.0173 10.746 19.0451 10.8388 19.0494C10.9314 19.0537 11.0237 19.0343 11.1067 18.993M10.3185 18.5054L11.1067 18.993M13.0974 12.9474V12.9472C13.0973 12.8757 13.1114 12.805 13.1387 12.7389C13.1661 12.6729 13.2062 12.6129 13.2569 12.5625L13.151 12.4562L13.257 12.5623L17.224 8.59533L17.268 8.55132L17.268 8.48907L17.2666 7.38929L17.2664 7.23948H17.1166H7.38948H7.23948V7.38948V8.49412V8.55629L7.28346 8.60023L11.2483 12.5623L11.2485 12.5625C11.2991 12.6129 11.3393 12.6729 11.3666 12.7389C11.394 12.805 11.408 12.8757 11.4079 12.9472V12.9474V17.3813V17.624L11.625 17.5154L13.0145 16.8207L13.0974 16.7792V16.6865V12.9474Z" fill="white" stroke="#5867DE" stroke-width="0.3"/>
<rect x="23.5" y="0.5" width="23" height="23" rx="3.5" transform="rotate(90 23.5 0.5)" stroke="white"/>
</svg>
