<svg width="20" height="20" viewBox="0 0 20 20" fill="none" xmlns="http://www.w3.org/2000/svg">
<path d="M14.6285 9.481C14.8655 9.791 14.8655 10.2095 14.6285 10.519C13.882 11.4935 12.091 13.5 10 13.5C7.909 13.5 6.118 11.4935 5.3715 10.519C5.25619 10.3706 5.1936 10.188 5.1936 10C5.1936 9.81204 5.25619 9.62943 5.3715 9.481C6.118 8.5065 7.909 6.5 10 6.5C12.091 6.5 13.882 8.5065 14.6285 9.481V9.481Z" stroke="#5D5D6A" stroke-linecap="round" stroke-linejoin="round"/>
<path d="M10 11.5C10.8284 11.5 11.5 10.8284 11.5 10C11.5 9.17157 10.8284 8.5 10 8.5C9.17157 8.5 8.5 9.17157 8.5 10C8.5 10.8284 9.17157 11.5 10 11.5Z" stroke="#5D5D6A" stroke-linecap="round" stroke-linejoin="round"/>
<rect x="0.5" y="0.5" width="19" height="19" rx="1.5" stroke="#5D5D6A"/>
</svg>
