<svg width="228" height="74" viewBox="0 0 228 74" fill="none" xmlns="http://www.w3.org/2000/svg">
<path d="M100.298 25.2504C100.946 25.2504 101.472 24.8154 101.472 24.2789C101.472 23.7424 100.946 23.3074 100.298 23.3074C99.6487 23.3074 99.1227 23.7424 99.1227 24.2789C99.1227 24.8154 99.6487 25.2504 100.298 25.2504Z" fill="white"/>
<path d="M89.6406 36.6378H98.1297C98.8041 36.6378 99.144 36.3622 99.144 35.8082C99.144 35.2542 98.8068 34.9759 98.1297 34.9759H89.7423C87.1758 34.9759 85.8939 34.1864 85.8939 32.6047V23.369C85.8939 22.8016 85.5219 22.5179 84.7806 22.5179C84.0633 22.5179 83.7074 22.8016 83.7074 23.369V32.6689C83.7047 35.3157 85.6825 36.6378 89.6406 36.6378Z" fill="white"/>
<path d="M100.297 26.6902C99.5802 26.6902 99.2243 26.9739 99.2243 27.5413V35.8885C99.2243 36.4558 99.5829 36.7395 100.297 36.7395C101.012 36.7395 101.371 36.4558 101.371 35.8885V27.5413C101.373 26.9739 101.015 26.6902 100.297 26.6902Z" fill="white"/>
<path d="M150.49 35.8188V29.4654C150.49 27.1425 148.748 25.981 145.264 25.981H141.354C137.869 25.981 136.127 27.1425 136.127 29.4654V35.8188C136.127 36.4317 136.486 36.7395 137.2 36.7395C137.915 36.7395 138.273 36.4317 138.273 35.8188V29.4654C138.273 28.3414 139.272 27.7794 141.271 27.7794H145.323C147.335 27.7794 148.341 28.3414 148.341 29.4654V35.8188C148.341 36.4317 148.7 36.7395 149.415 36.7395C150.132 36.7395 150.49 36.4344 150.49 35.8188Z" fill="white"/>
<path d="M187.008 27.7955H194.215C194.93 27.7955 195.286 27.4797 195.286 26.8481C195.286 26.2165 194.93 25.9007 194.215 25.9007H187.091C183.534 25.9007 181.757 27.1237 181.757 29.5725V33.4745C181.757 35.9072 183.534 37.1222 187.091 37.1222H194.215C194.93 37.1222 195.286 36.8064 195.286 36.1748C195.286 35.5592 194.93 35.2515 194.215 35.2515H187.008C184.977 35.2515 183.96 34.6654 183.96 33.4959V29.5484C183.962 28.3789 184.977 27.7955 187.008 27.7955Z" fill="white"/>
<path d="M206.681 26.0104H199.313V23.1094C199.313 22.5259 198.944 22.2342 198.208 22.2342C197.469 22.2342 197.103 22.5259 197.103 22.1914V35.3826C197.103 36.8867 197.472 37.1784 198.208 37.1784C198.947 37.1784 199.313 36.8867 199.313 36.3032V27.7259H206.89C208.851 27.7259 209.834 28.2477 209.834 29.2915V36.3032C209.834 36.8867 210.208 37.1784 210.96 37.1784C211.699 37.1784 212.066 36.8867 212.066 36.3032V29.3316C212.066 27.1157 210.27 26.0104 206.681 26.0104Z" fill="white"/>
<path d="M112.177 25.9836H108.267C104.783 25.9836 103.041 27.1451 103.041 29.4681V35.8215C103.041 36.4344 103.399 36.7421 104.114 36.7421C104.828 36.7421 105.187 36.4344 105.187 35.8215V29.4654C105.187 28.3414 106.185 27.7794 108.184 27.7794H112.236C114.249 27.7794 115.255 28.3414 115.255 29.4654V35.8188C115.255 36.4317 115.614 36.7395 116.328 36.7395C117.043 36.7395 117.401 36.4317 117.401 35.8188V29.4654C117.404 27.1451 115.662 25.9836 112.177 25.9836Z" fill="white"/>
<path d="M174.823 25.9836H168.815C165.793 25.9836 164.281 27.0702 164.281 29.238V33.7314C164.281 35.9928 165.973 37.1222 169.355 37.1222H172.433C173.126 37.1222 173.471 36.8251 173.471 36.2283C173.471 35.6315 173.123 35.3344 172.433 35.3344H169.355C167.428 35.3344 166.465 34.7912 166.465 33.7073V32.3103H178.294C178.931 32.3103 179.249 32.0346 179.249 31.486V28.9195C179.252 26.9605 177.775 25.9836 174.823 25.9836ZM177.068 30.5681C177.068 30.6751 177.012 30.7286 176.902 30.7286H166.465V29.3771C166.465 28.3227 167.289 27.7955 168.938 27.7955H174.654C176.263 27.7955 177.066 28.3227 177.066 29.3771V30.5681H177.068Z" fill="white"/>
<path d="M159.314 36.1908V24.1932H165.009C165.721 24.1932 166.077 23.8988 166.077 23.3127C166.077 22.7561 165.721 22.4751 165.009 22.4751H151.336C150.638 22.4751 150.29 22.7614 150.29 23.3342C150.29 23.9069 150.638 24.1932 151.336 24.1932H157.053V36.1908C157.053 36.7769 157.435 37.0713 158.203 37.0713C158.945 37.0686 159.314 36.7769 159.314 36.1908Z" fill="white"/>
<path d="M129.932 26.0104H124.076C121.132 26.0104 119.66 27.0461 119.66 29.1149V33.4022C119.66 35.5593 121.309 36.6378 124.603 36.6378H127.601C128.275 36.6378 128.615 36.3541 128.615 35.7841C128.615 35.2167 128.278 34.9303 127.601 34.9303H124.603C122.724 34.9303 121.788 34.4138 121.788 33.3781V32.0454H133.317C133.938 32.0454 134.248 31.7831 134.248 31.2585V28.8098C134.246 26.9444 132.806 26.0104 129.932 26.0104ZM132.118 30.3834C132.118 30.4851 132.064 30.536 131.955 30.536H121.785V29.246C121.785 28.2397 122.588 27.7366 124.196 27.7366H129.768C131.334 27.7366 132.118 28.2397 132.118 29.246V30.3834V30.3834Z" fill="white"/>
<path d="M20.6818 45.0546C19.9485 49.2724 22.9727 51.1056 26.0905 51.0146C29.2083 50.9236 36.0167 49.3339 41.7867 43.6603C36.6777 45.0787 34.2504 47.2545 28.1994 47.2545C24.2573 47.2545 24.2573 44.2276 30.9505 42.3034C37.6438 40.3792 41.2193 39.8118 45.413 39.3542C38.618 38.281 30.2173 39.1856 19.2152 42.0278C19.5819 35.7921 16.9243 24.8837 14.8155 18.0058C21.2331 17.0878 48.6459 12.5971 48.6459 12.5971L50.9367 37.4433L53.9636 38.6343L56.3481 4.52821C50.3881 4.52821 18.2999 10.7639 7.57355 14.797C12.2489 22.4055 14.1758 33.6832 15.2758 45.6032L20.6818 45.0546Z" fill="white"/>
<path d="M19.81 59.6241L50.5467 51.7907L50.2228 45.9565L19.81 55.789V59.6241Z" fill="white"/>
<path d="M70.8535 59.03C68.2602 59.03 67.0719 55.1949 67.0719 53.3055C67.0719 53.3055 72.2023 53.3055 73.8241 53.3055C73.8241 52.6043 73.9873 50.0645 72.9597 49.5239C73.3905 48.4989 74.2014 45.9057 74.2014 43.5827C74.2014 39.1535 70.7437 38.0188 68.1505 38.0188C63.8283 38.0188 57.4562 39.9082 55.0262 40.3953C52.5961 40.8824 51.5149 38.4496 51.5149 38.4496C51.5149 38.4496 49.3552 38.4496 47.7334 38.4496C47.7334 41.4203 49.299 43.6897 52.3793 43.6897C55.8371 43.6897 59.4018 41.0965 64.5322 41.0965C72.2023 41.0965 71.5546 47.201 72.2023 49.1439C71.8249 48.8736 71.0676 48.4427 70.0426 48.4427C67.179 48.4427 65.6134 50.8192 65.6134 50.8192L64.3181 42.6085L55.0824 45.5256L62.5892 45.6327L62.5357 51.3036L13.06 62.485L13.9779 51.9513L4.03833 69.3977C4.03833 69.3977 60.483 53.8943 64.6419 52.7622C64.4786 61.8909 67.9899 62.9159 69.6117 62.9159C71.4476 62.9159 75.0659 58.3234 75.9865 55.5161C74.2041 58.0558 72.5288 58.5429 70.8535 59.03Z" fill="white"/>
<path d="M95.6303 49.6791C95.6303 50.6372 95.079 51.2019 94.2012 51.2019C93.4036 51.2019 92.9407 50.7469 92.9407 49.8531V47.4766H92.3733V49.9093C92.3733 51.1136 93.0745 51.7131 94.145 51.7131C94.814 51.7131 95.3573 51.4187 95.6517 50.9075V51.6729H96.195V47.4766H95.6276V49.6791H95.6303Z" fill="white"/>
<path d="M218.834 45.7558H218.267V51.6756H218.834V45.7558Z" fill="white"/>
<path d="M131.813 47.4471C131.088 47.4471 130.521 47.7415 130.218 48.2527V47.4792H129.675V51.6756H130.242V49.473C130.242 48.5149 130.81 47.9583 131.709 47.9583C132.506 47.9583 132.969 48.4132 132.969 49.2991V51.6756H133.537V49.2429C133.537 48.0359 132.836 47.4471 131.813 47.4471Z" fill="white"/>
<path d="M126.597 47.4471C125.936 47.4471 125.312 47.6532 124.889 48.0145L125.144 48.4373C125.486 48.1349 125.997 47.9422 126.541 47.9422C127.322 47.9422 127.729 48.3329 127.729 49.0502V49.3044H126.396C125.192 49.3044 124.777 49.8477 124.777 50.4927C124.777 51.2179 125.36 51.713 126.308 51.713C127.001 51.713 127.496 51.4508 127.75 51.0199V51.6729H128.294V49.0716C128.296 47.9877 127.681 47.4471 126.597 47.4471ZM127.729 50.4124C127.507 50.9637 127.036 51.2661 126.396 51.2661C125.727 51.2661 125.336 50.9637 125.336 50.4766C125.336 50.0457 125.599 49.7273 126.412 49.7273H127.729V50.4124Z" fill="white"/>
<path d="M194.234 49.5748C194.234 48.3143 193.38 47.4445 192.2 47.4445C191.019 47.4445 190.15 48.3303 190.15 49.5748C190.15 50.8192 191.044 51.7131 192.352 51.7131C193.013 51.7131 193.597 51.4749 193.971 51.028L193.653 50.6613C193.334 51.028 192.879 51.2126 192.368 51.2126C191.45 51.2126 190.781 50.6292 190.717 49.7541H194.226C194.226 49.6872 194.234 49.6229 194.234 49.5748ZM190.717 49.3286C190.789 48.5069 191.386 47.9316 192.2 47.9316C193.021 47.9316 193.621 48.5069 193.69 49.3286H190.717Z" fill="white"/>
<path d="M136.408 47.4471C135.747 47.4471 135.124 47.6532 134.701 48.0145L134.955 48.4373C135.297 48.1349 135.809 47.9422 136.352 47.9422C137.133 47.9422 137.54 48.3329 137.54 49.0502V49.3044H136.207C135.003 49.3044 134.588 49.8477 134.588 50.4927C134.588 51.2179 135.172 51.713 136.119 51.713C136.812 51.713 137.307 51.4508 137.562 51.0199V51.6729H138.105V49.0716C138.108 47.9877 137.492 47.4471 136.408 47.4471ZM137.54 50.4124C137.318 50.9637 136.847 51.2661 136.207 51.2661C135.538 51.2661 135.148 50.9637 135.148 50.4766C135.148 50.0457 135.41 49.7273 136.223 49.7273H137.54V50.4124Z" fill="white"/>
<path d="M99.907 47.4471C99.1817 47.4471 98.6144 47.7415 98.312 48.2527V47.4792H97.7687V51.6756H98.336V49.473C98.336 48.5149 98.9034 47.9583 99.8026 47.9583C100.6 47.9583 101.063 48.4132 101.063 49.2991V51.6756H101.63V49.2429C101.63 48.0359 100.929 47.4471 99.907 47.4471Z" fill="white"/>
<path d="M110.63 47.9958V47.4445C109.857 47.4445 109.322 47.7389 109.06 48.2982V47.4766H108.516V51.6729H109.084V49.5346C109.084 48.5444 109.619 47.9878 110.497 47.9878C110.534 47.9878 110.582 47.9958 110.63 47.9958Z" fill="white"/>
<path d="M106.215 45.7558V48.2768C105.864 47.7335 105.289 47.4472 104.62 47.4472C103.423 47.4472 102.529 48.3089 102.529 49.5774C102.529 50.846 103.423 51.7158 104.62 51.7158C105.313 51.7158 105.896 51.4134 106.239 50.846V51.6756H106.782V45.7558H106.215ZM104.668 51.21C103.774 51.21 103.105 50.557 103.105 49.5748C103.105 48.5926 103.774 47.9396 104.668 47.9396C105.554 47.9396 106.223 48.5926 106.223 49.5748C106.223 50.557 105.554 51.21 104.668 51.21Z" fill="white"/>
<path d="M142.773 47.4766V48.2821C142.422 47.7308 141.814 47.4445 141.113 47.4445C139.917 47.4445 139.007 48.2661 139.007 49.4704C139.007 50.6747 139.917 51.5124 141.113 51.5124C141.798 51.5124 142.398 51.234 142.748 50.6988V51.234C142.748 52.2697 142.261 52.7568 141.202 52.7568C140.557 52.7568 139.949 52.5427 139.55 52.1814L139.264 52.6123C139.703 53.0271 140.452 53.2573 141.218 53.2573C142.607 53.2573 143.316 52.6043 143.316 51.1591V47.4766H142.773ZM141.169 51.0119C140.244 51.0119 139.582 50.3803 139.582 49.4731C139.582 48.5631 140.244 47.9423 141.169 47.9423C142.095 47.9423 142.765 48.5658 142.765 49.4731C142.765 50.3803 142.095 51.0119 141.169 51.0119Z" fill="white"/>
<path d="M120.653 50.2304L118.228 46.0903H117.741V51.6729H118.309V47.2303L120.503 50.9637H120.781L122.976 47.2063V51.6729H123.541V46.0903H123.056L120.653 50.2304Z" fill="white"/>
<path d="M223.961 49.5748C223.961 48.3143 223.108 47.4445 221.927 47.4445C220.747 47.4445 219.877 48.3303 219.877 49.5748C219.877 50.8192 220.771 51.7131 222.08 51.7131C222.741 51.7131 223.324 51.4749 223.699 51.028L223.381 50.6613C223.062 51.028 222.607 51.2126 222.096 51.2126C221.178 51.2126 220.509 50.6292 220.445 49.7541H223.956C223.953 49.6872 223.961 49.6229 223.961 49.5748ZM220.445 49.3286C220.517 48.5069 221.114 47.9316 221.927 47.9316C222.749 47.9316 223.348 48.5069 223.418 49.3286H220.445Z" fill="white"/>
<path d="M89.3625 47.4471C88.7015 47.4471 88.0779 47.6532 87.6551 48.0145L87.9093 48.4373C88.2519 48.1349 88.763 47.9422 89.3063 47.9422C90.0878 47.9422 90.4946 48.3329 90.4946 49.0502V49.3044H89.1618C87.9575 49.3044 87.5427 49.8477 87.5427 50.4927C87.5427 51.2179 88.1261 51.713 89.0735 51.713C89.7666 51.713 90.2617 51.4508 90.516 51.0199V51.6729H91.0593V49.0716C91.0619 47.9877 90.4464 47.4471 89.3625 47.4471ZM90.4946 50.4124C90.2724 50.9637 89.8014 51.2661 89.1618 51.2661C88.4927 51.2661 88.102 50.9637 88.102 50.4766C88.102 50.0457 88.3643 49.7273 89.1779 49.7273H90.4946V50.4124Z" fill="white"/>
<path d="M112.868 51.044L111.289 47.4792H110.697L112.571 51.6676L112.386 52.0744C112.148 52.6016 111.891 52.7755 111.516 52.7755C111.214 52.7755 110.957 52.6631 110.751 52.4571L110.489 52.8799C110.743 53.1342 111.118 53.2626 111.511 53.2626C112.111 53.2626 112.555 53.0003 112.908 52.1787L115.006 47.4792H114.447L112.868 51.044Z" fill="white"/>
<path d="M215.133 47.4471C214.439 47.4471 213.856 47.7495 213.513 48.3088V47.4792H212.97V53.2224H213.538V50.8861C213.888 51.4294 214.463 51.7157 215.133 51.7157C216.329 51.7157 217.223 50.854 217.223 49.5774C217.223 48.3062 216.329 47.4471 215.133 47.4471ZM215.092 51.2099C214.199 51.2099 213.529 50.5569 213.529 49.5747C213.529 48.6006 214.199 47.9395 215.092 47.9395C215.978 47.9395 216.655 48.6006 216.655 49.5747C216.655 50.5569 215.978 51.2099 215.092 51.2099Z" fill="white"/>
<path d="M176.046 50.2304L173.621 46.0903H173.134V51.6729H173.699V47.2303L175.893 50.9637H176.172L178.366 47.2063V51.6729H178.934V46.0903H178.447L176.046 50.2304Z" fill="white"/>
<path d="M202.91 47.4766H202.343V51.6729H202.91V47.4766Z" fill="white"/>
<path d="M169.393 51.226C168.922 51.226 168.668 50.9557 168.668 50.4606V47.9556H169.944V47.4766H168.668V46.5586H168.1V47.4766H167.351V47.9556H168.1V50.4927C168.1 51.2662 168.539 51.7131 169.329 51.7131C169.655 51.7131 169.99 51.6167 170.215 51.4187L170.014 51.0119C169.856 51.1564 169.626 51.226 169.393 51.226Z" fill="white"/>
<path d="M182.134 47.4471C181.473 47.4471 180.85 47.6532 180.427 48.0145L180.681 48.4373C181.024 48.1349 181.535 47.9422 182.078 47.9422C182.86 47.9422 183.266 48.3329 183.266 49.0502V49.3044H181.934C180.729 49.3044 180.314 49.8477 180.314 50.4927C180.314 51.2179 180.898 51.713 181.845 51.713C182.538 51.713 183.034 51.4508 183.288 51.0199V51.6729H183.831V49.0716C183.831 47.9877 183.218 47.4471 182.134 47.4471ZM183.266 50.4124C183.044 50.9637 182.573 51.2661 181.934 51.2661C181.265 51.2661 180.874 50.9637 180.874 50.4766C180.874 50.0457 181.136 49.7273 181.95 49.7273H183.266V50.4124V50.4124Z" fill="white"/>
<path d="M197.852 47.5569C197.852 46.9975 198.307 46.5426 199.327 46.5426C199.822 46.5426 200.379 46.6951 200.858 47.0056L201.058 46.5346C200.611 46.2241 199.958 46.0394 199.327 46.0394C197.906 46.0394 197.269 46.7486 197.269 47.5703C197.269 49.6363 200.708 48.6943 200.708 50.2278C200.708 50.7791 200.253 51.218 199.209 51.218C198.476 51.218 197.766 50.9316 197.365 50.5409L197.135 50.9959C197.55 51.4267 198.371 51.7211 199.209 51.7211C200.638 51.7211 201.291 51.0199 201.291 50.1983C201.288 48.1644 197.852 49.0904 197.852 47.5569Z" fill="white"/>
<path d="M164.806 47.4471C164.08 47.4471 163.513 47.7415 163.211 48.2527V47.4792H162.667V51.6756H163.235V49.473C163.235 48.5149 163.802 47.9583 164.701 47.9583C165.499 47.9583 165.962 48.4132 165.962 49.2991V51.6756H166.529V49.2429C166.529 48.0359 165.828 47.4471 164.806 47.4471Z" fill="white"/>
<path d="M188.539 45.7558V48.2768C188.188 47.7335 187.613 47.4472 186.944 47.4472C185.748 47.4472 184.854 48.3089 184.854 49.5774C184.854 50.846 185.748 51.7158 186.944 51.7158C187.637 51.7158 188.22 51.4134 188.563 50.846V51.6756H189.106V45.7558H188.539ZM186.992 51.21C186.098 51.21 185.429 50.557 185.429 49.5748C185.429 48.5926 186.098 47.9396 186.992 47.9396C187.878 47.9396 188.547 48.5926 188.547 49.5748C188.547 50.557 187.878 51.21 186.992 51.21Z" fill="white"/>
<path d="M209.85 47.4471C209.092 47.4471 208.493 47.7897 208.19 48.3329C207.936 47.7415 207.393 47.4471 206.7 47.4471C205.999 47.4471 205.455 47.7415 205.161 48.2446V47.4792H204.618V51.6756H205.185V49.473C205.185 48.5149 205.736 47.9583 206.59 47.9583C207.355 47.9583 207.802 48.4132 207.802 49.2991V51.6756H208.37V49.473C208.37 48.5149 208.913 47.9583 209.775 47.9583C210.532 47.9583 210.979 48.4132 210.979 49.2991V51.6756H211.546V49.2429C211.541 48.0359 210.872 47.4471 209.85 47.4471Z" fill="white"/>
<path d="M148.331 49.5748C148.331 48.3143 147.477 47.4445 146.297 47.4445C145.117 47.4445 144.247 48.3303 144.247 49.5748C144.247 50.8192 145.141 51.7131 146.449 51.7131C147.111 51.7131 147.694 51.4749 148.069 51.028L147.75 50.6613C147.432 51.028 146.977 51.2126 146.466 51.2126C145.548 51.2126 144.879 50.6292 144.814 49.7541H148.323C148.323 49.6872 148.331 49.6229 148.331 49.5748ZM144.814 49.3286C144.887 48.5069 145.483 47.9316 146.297 47.9316C147.119 47.9316 147.718 48.5069 147.788 49.3286H144.814Z" fill="white"/>
<path d="M154.682 47.4471C153.924 47.4471 153.325 47.7897 153.022 48.3329C152.768 47.7415 152.225 47.4471 151.532 47.4471C150.83 47.4471 150.287 47.7415 149.993 48.2446V47.4792H149.45V51.6756H150.017V49.473C150.017 48.5149 150.568 47.9583 151.422 47.9583C152.187 47.9583 152.634 48.4132 152.634 49.2991V51.6756H153.202V49.473C153.202 48.5149 153.745 47.9583 154.607 47.9583C155.364 47.9583 155.811 48.4132 155.811 49.2991V51.6756H156.378V49.2429C156.373 48.0359 155.704 47.4471 154.682 47.4471Z" fill="white"/>
<path d="M161.551 49.5748C161.551 48.3143 160.698 47.4445 159.517 47.4445C158.337 47.4445 157.467 48.3303 157.467 49.5748C157.467 50.8192 158.361 51.7131 159.67 51.7131C160.331 51.7131 160.914 51.4749 161.289 51.028L160.971 50.6613C160.652 51.028 160.197 51.2126 159.686 51.2126C158.768 51.2126 158.099 50.6292 158.035 49.7541H161.546C161.543 49.6872 161.551 49.6229 161.551 49.5748ZM158.032 49.3286C158.104 48.5069 158.701 47.9316 159.515 47.9316C160.336 47.9316 160.936 48.5069 161.005 49.3286H158.032Z" fill="white"/>
<path d="M84.4115 46.0903H83.8228V51.6729H87.5401V51.1644H84.4115V46.0903Z" fill="white"/>
<path d="M202.629 45.7558C202.399 45.7558 202.214 45.9404 202.214 46.1545C202.214 46.3767 202.399 46.5613 202.629 46.5613C202.867 46.5613 203.044 46.3767 203.044 46.1465C203.044 45.9297 202.862 45.7558 202.629 45.7558Z" fill="white"/>
</svg>
